<svg width="102" height="97" viewBox="0 0 102 97" fill="none" xmlns="http://www.w3.org/2000/svg">
<path fill-rule="evenodd" clip-rule="evenodd" d="M48.9554 0.721575C48.7494 1.30958 47.0054 2.05457 45.0804 2.37557C31.8284 4.58557 21.1104 9.93758 13.5184 18.1376C7.15936 25.0066 5.11436 28.6816 2.06236 38.7306C-1.28064 49.7366 -0.53464 61.2766 4.11936 70.5556C6.07436 74.4526 9.92536 79.7926 13.0654 82.9616C26.8854 96.9046 49.0174 100.296 67.9344 91.3676C71.9784 89.4596 75.8744 87.8976 76.5904 87.8976C78.9164 87.8976 90.7084 74.1356 94.3454 67.1756C99.0004 58.2686 101.08 50.9256 101.08 43.3976C101.08 29.8236 94.2404 17.5786 82.0804 9.38658C77.9554 6.60758 72.1054 3.51157 69.0804 2.50757C62.4544 0.308575 49.5014 -0.841425 48.9554 0.721575ZM64.6464 5.99058C77.1714 8.29858 86.2174 14.8936 91.7004 25.7136C94.3774 30.9966 94.5804 32.2086 94.5804 42.8976C94.5804 52.4986 94.2004 55.3886 92.2774 60.3976C87.3934 73.1196 78.2164 82.8506 65.0804 89.2376C58.8694 92.2566 58.0464 92.3956 46.5804 92.3616C36.6994 92.3316 33.6444 91.9476 29.2774 90.1876C15.1234 84.4816 4.46736 70.3816 3.34836 55.8816C2.41136 43.7436 8.33336 27.5496 16.8064 19.0766C27.8134 8.06958 47.1794 2.77258 64.6464 5.99058Z" fill="black"/>
</svg>
