<svg width="73" height="70" viewBox="0 0 73 70" fill="none" xmlns="http://www.w3.org/2000/svg">
<path fill-rule="evenodd" clip-rule="evenodd" d="M49.5 1.81243C31.557 6.29843 15.967 19.2774 7.841 36.4944C4.816 42.9034 0 60.3154 0 64.8434C0 68.9394 1.74 69.9154 9.04 69.9154C36.885 69.9154 63.424 49.2004 70.537 21.9154C72.211 15.4924 72.806 3.02943 71.537 0.975425C70.53 -0.653575 57.362 -0.152575 49.5 1.81243ZM68.983 7.16543C68.926 21.0844 61.833 37.7114 51.547 48.0394C42.288 57.3364 31.995 62.6024 17.629 65.3944L10.759 66.7294L15.548 61.8674C18.181 59.1934 20.733 57.2504 21.218 57.5504C21.703 57.8504 24.308 56.0294 27.007 53.5054C29.706 50.9804 32.52 48.9154 33.261 48.9154C34.002 48.9154 36.158 47.3064 38.054 45.3394C39.949 43.3724 43.638 40.3714 46.25 38.6704C48.862 36.9704 51 35.2044 51 34.7474C51 32.7854 47.292 34.2134 42.126 38.1654C39.07 40.5034 35.654 43.0394 34.535 43.8024C33.416 44.5664 40.271 37.3524 49.77 27.7724C63.523 13.9014 66.787 10.1024 65.798 9.11343C64.809 8.12443 58.798 13.6274 36.278 36.1374C20.725 51.6834 8 64.9674 8 65.6584C8 66.9044 4.846 67.4284 3.778 66.3594C3.017 65.5994 6.337 50.7474 8.891 43.4834C17.105 20.1204 40.092 3.61143 65.25 3.00543L69 2.91543L68.983 7.16543Z" fill="#06573F"/>
<path d="M68.983 7.16543C68.926 21.0844 61.833 37.7114 51.547 48.0394C42.288 57.3364 31.995 62.6024 17.629 65.3944L10.759 66.7294L15.548 61.8674C18.181 59.1934 20.733 57.2504 21.218 57.5504C21.703 57.8504 24.308 56.0294 27.007 53.5054C29.706 50.9804 32.52 48.9154 33.261 48.9154C34.002 48.9154 36.158 47.3064 38.054 45.3394C39.949 43.3724 43.638 40.3714 46.25 38.6704C48.862 36.9704 51 35.2044 51 34.7474C51 32.7854 47.292 34.2134 42.126 38.1654C39.07 40.5034 35.654 43.0394 34.535 43.8024C33.416 44.5664 40.271 37.3524 49.77 27.7724C63.523 13.9014 66.787 10.1024 65.798 9.11343C64.809 8.12443 58.798 13.6274 36.278 36.1374C20.725 51.6834 8 64.9674 8 65.6584C8 66.9044 4.846 67.4284 3.778 66.3594C3.017 65.5994 6.337 50.7474 8.891 43.4834C17.105 20.1204 40.092 3.61143 65.25 3.00543L69 2.91543L68.983 7.16543Z" fill="#C9F242"/>
</svg>
