<svg width="48" height="48" viewBox="0 0 48 48" fill="none" xmlns="http://www.w3.org/2000/svg">
<path fill-rule="evenodd" clip-rule="evenodd" d="M21.988 9.086C21.271 14.083 20.12 18.737 19.429 19.429C18.737 20.12 14.083 21.271 9.086 21.988C4.089 22.704 0 23.61 0 24C0 24.39 4.089 25.296 9.086 26.012C14.083 26.729 18.737 27.88 19.429 28.571C20.12 29.263 21.27 33.904 21.984 38.886C22.698 43.868 23.601 47.747 23.991 47.505C24.381 47.264 25.286 42.981 26.002 37.988C26.909 31.656 27.787 28.656 28.902 28.076C29.781 27.619 34.438 26.667 39.25 25.961C44.063 25.255 48 24.366 48 23.984C48 23.602 43.911 22.704 38.914 21.988C33.917 21.271 29.263 20.12 28.571 19.429C27.88 18.737 26.729 14.083 26.012 9.086C25.296 4.089 24.39 0 24 0C23.61 0 22.704 4.089 21.988 9.086Z" fill="black"/>
</svg>
